<svg version="1.1" xmlns="http://www.w3.org/2000/svg" xmlns:xlink="http://www.w3.org/1999/xlink" width="446.1099853515625" height="47.6199951171875"><defs></defs><g transform="translate(-225.5819549560547,19.009994506835938)"><rect fill="rgb(255,255,255)" stroke="none" x="0" y="0" width="446.1099853515625" height="47.6199951171875" fill-opacity="0" transform="translate(225.5819549560547,-19.009994506835938)"></rect><g transform="translate(224.09194946289062,24.5) rotate(0,0,0) translate(-224.09194946289062,-24.5) matrix(1,0,0,1,224.09194946289062,24.5)"><path fill="rgb(0,0,0)" fill-opacity="1" d="M18.15-27.81L18.15-27.81Q19.92-28.00 21.89-28.00Q23.86-28.00 26.33-27.48Q28.80-26.95 30.15-25.51L30.15-25.51Q31.64-23.97 31.64-22.03Q31.64-20.08 30.58-18.16Q29.52-16.24 27.36-14.28L27.36-14.28Q21.03-8.52 11.24-8.52L11.24-8.52Q8.60-8.52 6.56-9.07Q4.52-9.62 3.89-10.03Q3.27-10.44 2.38-11.16Q1.49-11.88 1.97-11.88L1.97-11.88Q2.21-11.88 3.41-11.44Q4.61-11.01 7.85-11.01Q11.09-11.01 14.79-11.76Q18.48-12.50 21.12-13.99Q23.76-15.48 25.30-17.35L25.30-17.35Q27.17-19.60 27.17-21.91L27.17-21.91Q27.17-23.16 26.50-24.45Q25.83-25.75 23.81-26.44Q21.80-27.14 20.21-27.14Q18.63-27.14 16.59-26.95Q14.55-26.76 11.38-25.65Q8.21-24.55 7.16-23.01Q6.10-21.48 5.33-20.16Q4.56-18.84 3.80-17.35Q3.03-15.86 2.60-15.09L2.60-15.09Q2.31-14.42 1.90-14.42Q1.49-14.42 1.49-14.76L1.49-14.76Q1.49-16.34 5.21-22.08Q8.93-27.81 12.34-32.25Q15.75-36.69 16.32-36.69L16.32-36.69Q16.61-36.69 16.80-36.43Q17.00-36.16 16.95-35.88L16.95-35.88Q10.95-28.34 9.75-26.80L9.75-26.80Q27.32-29.73 31.11-35.20L31.11-35.20Q31.68-36.12 31.68-36.93Q31.68-37.75 30.92-38.47L30.92-38.47Q29.38-39.86 25.18-39.86Q20.98-39.86 14.14-37.92Q7.30-35.97 4.61-33.67L4.61-33.67Q3.80-33.04 4.04-32.64Q4.28-32.23 4.13-32.18Q3.99-32.13 3.75-32.32L3.75-32.32Q2.74-32.90 2.45-33.79Q2.16-34.68 2.16-35.08Q2.16-35.49 2.40-35.73L2.40-35.73Q4.47-38.71 11.98-41.04Q19.49-43.36 23.48-43.36L23.48-43.36Q31.44-43.36 33.51-40.63L33.51-40.63Q34.32-39.57 34.32-38.37L34.32-38.37Q34.32-36.50 32.21-34.48L32.21-34.48Q27.32-29.92 18.15-27.81ZM44.64-23.01L44.64-23.01Q44.64-23.64 43.73-23.64L43.73-23.64Q42.10-23.64 39.75-21.33L39.75-21.33Q39.17-20.76 37.66-18.93Q36.15-17.11 34.71-14.76L34.71-14.76L33.51-12.12L33.65-12.60Q33.56-12.40 33.46-12.02L33.46-12.02L33.46-12.02Q33.22-11.44 32.07-11.06L32.07-11.06Q31.83-10.96 31.64-10.96L31.64-10.96Q31.16-10.96 31.54-11.68L31.54-11.68Q31.73-12.16 32.88-15.12Q34.04-18.07 34.76-19.84L34.76-19.84Q32.88-17.78 31.25-16.48L31.25-16.48Q30.77-16.10 30.58-16.39L30.58-16.39Q30.53-16.44 30.53-16.58Q30.53-16.72 30.96-17.11L30.96-17.11Q33.89-19.65 35.57-21.81L35.57-21.81Q36.82-24.74 40.16-29.95Q43.49-35.16 47.00-38.56L47.00-38.56Q49.35-40.92 52.08-41.73L52.08-41.73Q53.33-42.12 54.41-42.12Q55.49-42.12 56.43-41.52Q57.36-40.92 57.36-39.28L57.36-39.28Q57.36-37.12 55.92-34.92Q54.48-32.71 50.84-30.00Q47.19-27.28 44.07-25.94L44.07-25.94Q43.49-25.70 43.40-26.01Q43.30-26.32 43.88-26.56L43.88-26.56Q46.66-27.81 50.14-30.50Q53.62-33.19 54.80-35.08Q55.97-36.98 55.97-38.16Q55.97-39.33 54.96-39.33L54.96-39.33Q53.81-39.33 51.32-37.41L51.32-37.41Q47.62-34.44 43.56-29.11Q39.51-23.78 36.58-18.36L36.58-18.36Q37.92-20.28 39.03-21.52L39.03-21.52Q41.72-24.55 44.26-24.55L44.26-24.55Q46.66-24.55 47.09-22.44L47.09-22.44Q47.14-22.15 47.14-21.62Q47.14-21.09 46.78-20.06Q46.42-19.03 44.76-16.27Q43.11-13.51 43.11-12.93Q43.11-12.36 43.49-12.36L43.49-12.36Q44.02-12.36 45.08-13.03L45.08-13.03Q47.76-14.71 52.08-18.69L52.08-18.69Q52.66-19.27 52.64-18.88Q52.61-18.50 52.32-18.16L52.32-18.16Q48.77-14.52 44.98-12.07L44.98-12.07Q43.20-10.92 41.76-10.92L41.76-10.92Q41.38-10.92 41.04-11.01L41.04-11.01Q39.17-11.40 39.17-13.10Q39.17-14.80 40.52-16.92L40.52-16.92Q40.76-17.25 42.29-19.17L42.29-19.17Q44.64-22.05 44.64-23.01ZM59.14-12.12L59.14-12.12Q55.92-10.48 53.52-10.48L53.52-10.48Q51.51-10.48 50.79-11.83L50.79-11.83Q50.40-12.50 50.40-13.36L50.40-13.36Q50.40-15.33 51.32-17.20L51.32-17.20Q50.69-16.58 50.12-16.20L50.12-16.20Q49.64-15.76 49.64-16.29L49.64-16.29Q49.64-16.63 50.48-17.35Q51.32-18.07 53.04-19.77Q54.77-21.48 55.78-22.34L55.78-22.34Q58.71-24.79 61.97-24.79L61.97-24.79Q63.17-24.79 64.42-24.16L64.42-24.16Q66.24-23.30 66.24-21.00L66.24-21.00Q66.24-18.21 63.46-15.28L63.46-15.28Q62.36-14.04 60.39-12.79L60.39-12.79Q64.32-13.41 68.74-17.54L68.74-17.54Q68.98-17.73 69.17-17.71Q69.36-17.68 69.36-17.49Q69.36-17.30 69.17-17.11L69.17-17.11Q63.89-12.12 59.33-12.12L59.33-12.12Q59.24-12.12 59.14-12.12ZM63.80-17.16L63.80-17.16Q65.00-18.98 65.00-20.25Q65.00-21.52 63.89-22.20L63.89-22.20Q63.27-22.72 62.45-22.72L62.45-22.72Q59.52-22.72 57.05-20.42Q54.58-18.12 53.76-15.52L53.76-15.52Q53.43-14.61 53.43-13.63Q53.43-12.64 54.17-12.24Q54.92-11.83 55.83-11.83Q56.74-11.83 58.47-12.74L58.47-12.74Q58.37-12.74 58.18-12.84L58.18-12.84Q57.60-13.12 57.60-13.60L57.60-13.60Q57.60-15.28 59.48-17.01L59.48-17.01Q60.82-18.21 62.21-18.21Q63.60-18.21 63.80-17.16ZM64.13 1.85L64.13 1.85Q59.96 1.85 57.20 0.03Q54.44-1.80 54.44-5.16L54.44-5.16Q54.44-5.35 54.58-5.35L54.58-5.35Q54.92-5.35 55.01-4.96L55.01-4.96Q55.44-2.52 57.36-0.74L57.36-0.74Q58.23 0.08 59.74 0.60Q61.25 1.13 62.26 1.13Q63.27 1.13 63.56 1.13L63.56 1.13Q68.88 0.84 72.87-4.24L72.87-4.24Q74.74-6.64 76.18-9.02Q77.62-11.40 79.30-14.32Q80.98-17.25 82.13-18.79L82.13-18.79Q80.64-17.11 78.39-14.95Q76.13-12.79 74.50-11.83Q72.87-10.87 71.48-10.87Q70.08-10.87 69.10-11.71Q68.12-12.55 68.12-13.80L68.12-13.80Q68.12-17.35 71.28-20.76L71.28-20.76Q73.68-23.30 77.24-24.36L77.24-24.36Q78.82-24.88 80.33-24.88Q81.84-24.88 83.26-24.04Q84.68-23.20 85.06-22.05L85.06-22.05Q85.83-22.05 86.74-21.40Q87.65-20.76 87.65-20.47Q87.65-20.18 87.27-19.99L87.27-19.99Q85.73-19.22 82.42-13.27L82.42-13.27Q79.20-7.56 74.88-3.04L74.88-3.04Q72.72-0.79 69.87 0.53Q67.01 1.85 64.13 1.85ZM71.57-13.22L71.57-13.22Q71.57-12.12 72.72-12.12L72.72-12.12Q73.64-12.12 74.98-13.12L74.98-13.12Q78.24-15.28 81.80-19.41L81.80-19.41Q83.43-21.28 83.43-22.34L83.43-22.34Q83.43-22.72 83.16-23.04Q82.90-23.35 82.04-23.35Q81.17-23.35 79.28-22.34Q77.38-21.33 75.39-19.29Q73.40-17.25 72.48-15.64Q71.57-14.04 71.57-13.22ZM98.02-25.94Q97.49-26.37 97.59-27.19Q97.68-28.00 98.45-28.92Q99.22-29.83 100.52-29.83L100.52-29.83Q100.90-29.83 101.33-29.47Q101.76-29.11 101.67-28.27Q101.57-27.43 100.90-26.68Q100.23-25.94 99.39-25.72Q98.55-25.51 98.02-25.94ZM97.40-23.40L97.40-23.40Q95.43-21.38 94.11-18.28Q92.79-15.19 92.79-13.94Q92.79-12.69 93.77-12.69Q94.76-12.69 97.04-14.13Q99.32-15.57 102.24-18.21L102.24-18.21Q102.87-18.79 102.87-18.07L102.87-18.07Q102.87-17.97 102.77-17.88L102.77-17.88Q100.47-15.86 98.88-14.56Q97.30-13.27 95.12-12.09Q92.93-10.92 91.54-10.92L91.54-10.92Q89.81-10.92 88.97-11.68Q88.13-12.45 88.13-13.36L88.13-13.36Q88.13-15.09 88.76-16.10Q89.38-17.11 90.87-18.88L90.87-18.88Q90.34-18.45 89.21-17.44Q88.08-16.44 87.65-16.10Q87.22-15.76 87.22-16.29L87.22-16.29Q87.22-16.63 87.99-17.25Q88.76-17.88 91.32-20.42Q93.89-22.96 94.83-23.44Q95.76-23.92 96.36-23.92Q96.96-23.92 97.25-23.76Q97.54-23.59 97.40-23.40ZM150.39-37.03Q150.39-33.76 147.80-28.44Q145.20-23.11 140.64-17.23Q136.08-11.35 130.18-5.97L130.18-5.97Q119.14 4.11 111.51 4.11L111.51 4.11Q107.67 4.11 106.23 0.99L106.23 0.99Q105.84 0.03 105.84-1.03L105.84-1.03Q105.84-4.44 108.20-8.13L108.20-8.13Q112.71-15.09 121.40-20.08L121.40-20.08Q122.21-26.37 127.13-32.71Q132.05-39.04 138.10-42.12L138.10-42.12Q140.84-43.51 143.43-43.51Q146.02-43.51 147.94-42.12L147.94-42.12Q150.39-40.29 150.39-37.03ZM125.00-13.75L125.00-13.75Q123.22-13.75 122.21-14.95L122.21-14.95Q110.93-7.27 109.35-1.89L109.35-1.89Q109.16-1.12 109.16-0.45L109.16-0.45Q109.16 1.32 111.32 2.04L111.32 2.04Q112.13 2.28 112.90 2.28L112.90 2.28Q115.35 2.28 117.70 1.28L117.70 1.28Q123.84-1.27 131.09-8.59Q138.34-15.91 142.83-23.61Q147.32-31.32 147.32-35.78L147.32-35.78Q147.32-39.48 144.96-40.68L144.96-40.68Q144.05-41.16 142.56-41.16Q141.08-41.16 138.87-40.48L138.87-40.48Q132.44-38.28 128.31-33.04Q124.18-27.81 123.32-21.09L123.32-21.09Q128.21-23.49 132.48-23.49L132.48-23.49Q136.52-23.49 137.04-21.28L137.04-21.28Q137.19-20.76 137.14-20.66Q137.09-20.56 136.85-20.66L136.85-20.66Q136.47-20.85 135.56-20.85L135.56-20.85Q131.38-20.85 123.46-15.76L123.46-15.76Q124.04-14.37 125.14-14.28L125.14-14.28Q125.48-14.23 125.48-13.99Q125.48-13.75 125.00-13.75ZM155.04-22.05L155.04-22.05Q155.62-22.68 155.62-23.11Q155.62-23.54 155.04-23.54Q154.47-23.54 153.29-22.68Q152.12-21.81 149.76-19.60Q147.41-17.40 146.96-17.04Q146.50-16.68 146.48-17.01Q146.45-17.35 147.08-17.85Q147.70-18.36 149.86-20.56Q152.02-22.77 153.22-23.68Q154.42-24.60 155.96-24.60L155.96-24.60Q157.68-24.60 158.31-23.30L158.31-23.30Q158.60-22.82 158.60-22.05Q158.60-21.28 158.21-20.35Q157.83-19.41 157.32-18.67Q156.82-17.92 156.03-16.87Q155.24-15.81 154.49-14.76Q153.75-13.70 153.75-13.22Q153.75-12.74 154.13-12.74L154.13-12.74Q156.00-12.74 161.14-18.98L161.14-18.98Q163.59-21.91 165.32-24.45L165.32-24.45Q166.85-28.00 168.00-28.34L168.00-28.34Q168.44-28.48 169.06-28.48Q169.68-28.48 169.97-27.96Q170.26-27.43 170.26-27.14Q170.26-26.85 169.85-26.68Q169.44-26.52 169.13-26.54Q168.82-26.56 168.72-26.56L168.72-26.56Q167.33-26.56 166.37-24.55L166.37-24.55Q165.80-23.30 164.91-20.56Q164.02-17.83 163.25-15.52Q162.48-13.22 160.71-10.15Q158.93-7.08 156.39-4.39Q153.84-1.70 150.36 0.12Q146.88 1.95 143.24 1.95Q139.59 1.95 137.12 0.27Q134.64-1.41 134.07-4.92L134.07-4.92Q134.07-5.16 134.16-5.25Q134.26-5.35 134.40-5.25Q134.55-5.16 134.55-4.96L134.55-4.96Q135.03-2.28 137.12-0.60Q139.20 1.08 141.94 1.08L141.94 1.08Q145.54 1.08 149.31-1.68Q153.08-4.44 156.36-8.92Q159.65-13.41 164.12-22.05L164.12-22.05Q163.01-20.37 161.48-18.40L161.48-18.40Q155.48-11.01 152.26-11.01L152.26-11.01Q149.81-11.01 149.81-13.32L149.81-13.32Q149.81-14.13 150.15-15.24L150.15-15.24Q150.82-17.16 155.04-22.05ZM175.06-12.12L175.06-12.12Q171.84-10.48 169.44-10.48L169.44-10.48Q167.43-10.48 166.71-11.83L166.71-11.83Q166.32-12.50 166.32-13.36L166.32-13.36Q166.32-15.33 167.24-17.20L167.24-17.20Q166.61-16.58 166.04-16.20L166.04-16.20Q165.56-15.76 165.56-16.29L165.56-16.29Q165.56-16.63 166.40-17.35Q167.24-18.07 168.96-19.77Q170.69-21.48 171.70-22.34L171.70-22.34Q174.63-24.79 177.89-24.79L177.89-24.79Q179.09-24.79 180.34-24.16L180.34-24.16Q182.16-23.30 182.16-21.00L182.16-21.00Q182.16-18.21 179.38-15.28L179.38-15.28Q178.28-14.04 176.31-12.79L176.31-12.79Q180.24-13.41 184.66-17.54L184.66-17.54Q184.90-17.73 185.09-17.71Q185.28-17.68 185.28-17.49Q185.28-17.30 185.09-17.11L185.09-17.11Q179.81-12.12 175.25-12.12L175.25-12.12Q175.16-12.12 175.06-12.12ZM179.72-17.16L179.72-17.16Q180.92-18.98 180.92-20.25Q180.92-21.52 179.81-22.20L179.81-22.20Q179.19-22.72 178.37-22.72L178.37-22.72Q175.44-22.72 172.97-20.42Q170.50-18.12 169.68-15.52L169.68-15.52Q169.35-14.61 169.35-13.63Q169.35-12.64 170.09-12.24Q170.84-11.83 171.75-11.83Q172.66-11.83 174.39-12.74L174.39-12.74Q174.29-12.74 174.10-12.84L174.10-12.84Q173.52-13.12 173.52-13.60L173.52-13.60Q173.52-15.28 175.40-17.01L175.40-17.01Q176.74-18.21 178.13-18.21Q179.52-18.21 179.72-17.16ZM193.11-27.76Q194.16-29.35 194.81-30.28Q195.46-31.22 195.84-31.65Q196.23-32.08 197.57-32.40Q198.92-32.71 200.16-32.71Q201.41-32.71 201.41-32.44Q201.41-32.18 199.35-30.21Q197.28-28.24 194.55-24.98L194.55-24.98Q197.81-24.45 198.82-22.92L198.82-22.92Q199.20-22.24 198.94-22.05Q198.68-21.86 198.34-22.20L198.34-22.20Q197.33-23.20 195.12-23.20L195.12-23.20Q194.16-23.20 192.96-23.01L192.96-23.01Q189.08-18.02 188.07-14.85L188.07-14.85Q187.73-13.94 187.73-13.32L187.73-13.32Q187.73-11.64 189.12-11.64L189.12-11.64Q190.61-11.64 193.30-13.70L193.30-13.70Q196.80-16.34 199.40-18.93L199.40-18.93Q199.88-19.46 200.02-19.17Q200.16-18.88 199.78-18.55L199.78-18.55Q195.65-14.23 192.84-12.19Q190.04-10.15 187.68-10.15L187.68-10.15Q184.47-10.15 184.47-13.56L184.47-13.56Q184.47-15.19 185.38-17.44L185.38-17.44L184.52-16.63Q184.13-16.24 183.96-16.41Q183.80-16.58 183.80-16.72Q183.80-16.87 184.18-17.20L184.18-17.20Q187.68-20.28 188.98-21.86L188.98-21.86Q188.07-21.52 187.76-21.81Q187.44-22.10 187.32-22.58Q187.20-23.06 187.80-23.76Q188.40-24.45 189.58-24.76Q190.76-25.08 191.33-25.12L191.33-25.12Q192.05-26.18 193.11-27.76ZM211.01-23.01L211.01-23.01Q211.01-23.64 210.10-23.64L210.10-23.64Q208.47-23.64 206.12-21.33L206.12-21.33Q205.54-20.76 204.03-18.93Q202.52-17.11 201.08-14.76L201.08-14.76L199.88-12.12L200.02-12.60Q199.92-12.40 199.83-12.02L199.83-12.02L199.83-12.02Q199.59-11.44 198.44-11.06L198.44-11.06Q198.20-10.96 198.00-10.96L198.00-10.96Q197.52-10.96 197.91-11.68L197.91-11.68Q198.10-12.16 199.25-15.12Q200.40-18.07 201.12-19.84L201.12-19.84Q199.25-17.78 197.62-16.48L197.62-16.48Q197.14-16.10 196.95-16.39L196.95-16.39Q196.90-16.44 196.90-16.58Q196.90-16.72 197.33-17.11L197.33-17.11Q200.26-19.65 201.94-21.81L201.94-21.81Q203.19-24.74 206.52-29.95Q209.86-35.16 213.36-38.56L213.36-38.56Q215.72-40.92 218.45-41.73L218.45-41.73Q219.70-42.12 220.78-42.12Q221.86-42.12 222.80-41.52Q223.73-40.92 223.73-39.28L223.73-39.28Q223.73-37.12 222.29-34.92Q220.85-32.71 217.20-30.00Q213.56-27.28 210.44-25.94L210.44-25.94Q209.86-25.70 209.76-26.01Q209.67-26.32 210.24-26.56L210.24-26.56Q213.03-27.81 216.51-30.50Q219.99-33.19 221.16-35.08Q222.34-36.98 222.34-38.16Q222.34-39.33 221.33-39.33L221.33-39.33Q220.18-39.33 217.68-37.41L217.68-37.41Q213.99-34.44 209.93-29.11Q205.88-23.78 202.95-18.36L202.95-18.36Q204.29-20.28 205.40-21.52L205.40-21.52Q208.08-24.55 210.63-24.55L210.63-24.55Q213.03-24.55 213.46-22.44L213.46-22.44Q213.51-22.15 213.51-21.62Q213.51-21.09 213.15-20.06Q212.79-19.03 211.13-16.27Q209.48-13.51 209.48-12.93Q209.48-12.36 209.86-12.36L209.86-12.36Q210.39-12.36 211.44-13.03L211.44-13.03Q214.13-14.71 218.45-18.69L218.45-18.69Q219.03-19.27 219.00-18.88Q218.98-18.50 218.69-18.16L218.69-18.16Q215.14-14.52 211.35-12.07L211.35-12.07Q209.57-10.92 208.13-10.92L208.13-10.92Q207.75-10.92 207.41-11.01L207.41-11.01Q205.54-11.40 205.54-13.10Q205.54-14.80 206.88-16.92L206.88-16.92Q207.12-17.25 208.66-19.17L208.66-19.17Q211.01-22.05 211.01-23.01ZM226.76-25.94Q226.23-26.37 226.32-27.19Q226.42-28.00 227.19-28.92Q227.96-29.83 229.25-29.83L229.25-29.83Q229.64-29.83 230.07-29.47Q230.50-29.11 230.40-28.27Q230.31-27.43 229.64-26.68Q228.96-25.94 228.12-25.72Q227.28-25.51 226.76-25.94ZM226.13-23.40L226.13-23.40Q224.16-21.38 222.84-18.28Q221.52-15.19 221.52-13.94Q221.52-12.69 222.51-12.69Q223.49-12.69 225.77-14.13Q228.05-15.57 230.98-18.21L230.98-18.21Q231.60-18.79 231.60-18.07L231.60-18.07Q231.60-17.97 231.51-17.88L231.51-17.88Q229.20-15.86 227.62-14.56Q226.04-13.27 223.85-12.09Q221.67-10.92 220.28-10.92L220.28-10.92Q218.55-10.92 217.71-11.68Q216.87-12.45 216.87-13.36L216.87-13.36Q216.87-15.09 217.49-16.10Q218.12-17.11 219.60-18.88L219.60-18.88Q219.08-18.45 217.95-17.44Q216.82-16.44 216.39-16.10Q215.96-15.76 215.96-16.29L215.96-16.29Q215.96-16.63 216.72-17.25Q217.49-17.88 220.06-20.42Q222.63-22.96 223.56-23.44Q224.50-23.92 225.10-23.92Q225.70-23.92 225.99-23.76Q226.28-23.59 226.13-23.40ZM243.32-20.90L243.32-20.90Q241.20-18.45 239.88-16.41Q238.56-14.37 238.56-13.53Q238.56-12.69 239.55-12.69Q240.53-12.69 243.58-14.66Q246.63-16.63 249.22-19.08L249.22-19.08Q249.46-19.32 249.65-19.27Q249.84-19.22 249.84-19.03Q249.84-18.84 249.65-18.60L249.65-18.60Q243.46-12.93 240.20-11.49L240.20-11.49Q238.76-10.92 238.13-10.92L238.13-10.92Q235.83-10.92 234.99-11.68Q234.15-12.45 234.15-13.36L234.15-13.36Q234.15-15.19 234.87-16.15L234.87-16.15Q237.22-19.46 238.61-21.76L238.61-21.76Q239.04-22.44 238.44-22.70Q237.84-22.96 236.96-22.96Q236.07-22.96 236.02-23.01L236.02-23.01Q232.80-18.69 229.64-16.20L229.64-16.20Q229.25-15.86 229.20-16.20L229.20-16.20Q229.20-16.58 229.73-17.11L229.73-17.11Q233.09-19.99 235.25-23.20L235.25-23.20Q234.82-23.49 234.82-24.00Q234.82-24.50 234.89-25.22Q234.96-25.94 235.64-27.14L235.64-27.14Q236.79-29.16 238.04-29.16L238.04-29.16Q239.09-29.16 239.09-28.00L239.09-28.00Q239.09-26.42 237.60-24.55L237.60-24.55Q236.88-23.68 236.26-23.30L236.26-23.30Q238.04-23.88 241.44-23.88L241.44-23.88Q243.12-23.88 243.84-22.63L243.84-22.63Q243.94-22.44 243.94-22.05Q243.94-21.67 243.32-20.90ZM259.54-9.52L259.54-9.52Q259.54-11.83 266.45-21.91L266.45-21.91Q266.21-22.77 266.21-23.49Q266.21-24.21 267.41-25.17Q268.61-26.13 269.24-26.13L269.24-26.13Q269.33-26.13 269.38-26.13L269.38-26.13Q272.21-30.02 274.42-32.71Q276.63-35.40 277.01-35.40Q277.40-35.40 277.61-35.08Q277.83-34.77 277.83-34.44L277.83-34.44Q273.99-29.68 269.96-24.16L269.96-24.16L270.05-23.83L271.78-23.97Q275.43-24.21 279.70-25.63Q283.97-27.04 286.71-28.87L286.71-28.87Q292.37-32.71 292.37-35.92L292.37-35.92Q292.37-37.32 290.50-38.28Q288.63-39.24 284.64-39.24Q280.66-39.24 273.82-37.29Q266.98-35.35 264.29-33.04L264.29-33.04Q263.52-32.37 263.74-31.99Q263.96-31.60 263.81-31.56Q263.67-31.51 263.38-31.70L263.38-31.70Q262.37-32.28 262.11-33.14Q261.84-34.00 261.84-34.44Q261.84-34.87 262.08-35.06L262.08-35.06Q263.67-37.36 269.16-39.40Q274.66-41.44 279.32-42.09Q283.97-42.74 286.20-42.74Q288.44-42.74 289.90-42.45Q291.36-42.16 292.52-41.16L292.52-41.16Q294.29-39.67 294.29-36.98L294.29-36.98Q294.29-34.34 292.32-32.08Q290.36-29.83 287.26-28.03Q284.16-26.23 279.75-24.79L279.75-24.79Q274.61-23.11 270.29-23.11L270.29-23.11Q271.83-19.27 276.46-15.36Q281.09-11.44 284.12-11.44L284.12-11.44Q285.32-11.44 286.23-12.02Q287.14-12.60 287.28-13.46L287.28-13.46Q287.28-13.70 287.52-13.60L287.52-13.60Q287.62-13.46 287.62-13.36L287.62-13.36Q287.24-10.15 282.15-10.15L282.15-10.15Q279.22-10.15 276.05-11.68Q272.88-13.22 270.65-15.52Q268.42-17.83 267.12-20.28L267.12-20.28Q262.04-12.88 260.84-9.86L260.84-9.86Q260.55-9.09 260.04-9.09Q259.54-9.09 259.54-9.52ZM306.05-18.69Q305.52-18.07 304.97-17.35Q304.42-16.63 303.58-15.38Q302.74-14.13 302.74-13.27Q302.74-12.40 303.48-12.40Q304.23-12.40 305.91-13.32L305.91-13.32Q309.27-15.24 313.35-19.08L313.35-19.08Q313.83-19.56 313.97-19.22L313.97-19.22Q313.97-19.17 313.97-19.03Q313.97-18.88 313.78-18.69L313.78-18.69Q305.52-10.92 301.78-10.92L301.78-10.92Q300.68-10.92 299.93-11.66Q299.19-12.40 299.19-13.41L299.19-13.41Q299.19-14.42 300.05-16.48L300.05-16.48Q297.89-13.80 295.42-12.33Q292.95-10.87 291.56-10.87Q290.16-10.87 289.18-11.71Q288.20-12.55 288.20-13.80L288.20-13.80Q288.20-17.35 291.36-20.76L291.36-20.76Q293.76-23.30 297.32-24.36L297.32-24.36Q298.90-24.88 300.41-24.88Q301.92-24.88 303.34-24.04Q304.76-23.20 305.14-22.05L305.14-22.05Q306.58-22.05 307.20-21.00L307.20-21.00Q307.30-20.85 307.30-20.52Q307.30-20.18 306.94-19.75Q306.58-19.32 306.05-18.69ZM302.55-23.44L302.55-23.44Q301.54-23.44 300.15-22.82L300.15-22.82Q297.70-21.76 295.49-19.17L295.49-19.17Q291.99-15.04 291.99-13.12L291.99-13.12Q291.99-12.12 292.80-12.12L292.80-12.12Q293.48-12.12 295.04-12.98Q296.60-13.84 299.14-16.39L299.14-16.39Q299.28-16.53 300.24-17.44Q301.20-18.36 301.88-19.03L301.88-19.03Q304.13-21.38 304.13-22.41Q304.13-23.44 302.55-23.44ZM307.11 1.85L307.11 1.85Q302.93 1.85 300.17 0.03Q297.41-1.80 297.41-5.16L297.41-5.16Q297.41-5.35 297.56-5.35L297.56-5.35Q297.89-5.35 297.99-4.96L297.99-4.96Q298.42-2.52 300.34-0.74L300.34-0.74Q301.20 0.08 302.72 0.60Q304.23 1.13 305.24 1.13Q306.24 1.13 306.53 1.13L306.53 1.13Q311.86 0.84 315.84-4.24L315.84-4.24Q317.72-6.64 319.16-9.02Q320.60-11.40 322.28-14.32Q323.96-17.25 325.11-18.79L325.11-18.79Q323.62-17.11 321.36-14.95Q319.11-12.79 317.48-11.83Q315.84-10.87 314.45-10.87Q313.06-10.87 312.08-11.71Q311.09-12.55 311.09-13.80L311.09-13.80Q311.09-17.35 314.26-20.76L314.26-20.76Q316.66-23.30 320.21-24.36L320.21-24.36Q321.80-24.88 323.31-24.88Q324.82-24.88 326.24-24.04Q327.65-23.20 328.04-22.05L328.04-22.05Q328.80-22.05 329.72-21.40Q330.63-20.76 330.63-20.47Q330.63-20.18 330.24-19.99L330.24-19.99Q328.71-19.22 325.40-13.27L325.40-13.27Q322.18-7.56 317.86-3.04L317.86-3.04Q315.70-0.79 312.84 0.53Q309.99 1.85 307.11 1.85ZM314.55-13.22L314.55-13.22Q314.55-12.12 315.70-12.12L315.70-12.12Q316.61-12.12 317.96-13.12L317.96-13.12Q321.22-15.28 324.77-19.41L324.77-19.41Q326.40-21.28 326.40-22.34L326.40-22.34Q326.40-22.72 326.14-23.04Q325.88-23.35 325.01-23.35Q324.15-23.35 322.25-22.34Q320.36-21.33 318.36-19.29Q316.37-17.25 315.46-15.64Q314.55-14.04 314.55-13.22ZM344.50-23.01L344.50-23.01Q344.50-23.64 343.59-23.64L343.59-23.64Q341.96-23.64 339.60-21.33L339.60-21.33Q339.03-20.76 337.52-18.93Q336.00-17.11 334.56-14.76L334.56-14.76L333.36-12.12L333.51-12.60Q333.41-12.40 333.32-12.02L333.32-12.02L333.32-12.02Q333.08-11.44 331.92-11.06L331.92-11.06Q331.68-10.96 331.49-10.96L331.49-10.96Q331.01-10.96 331.40-11.68L331.40-11.68Q331.59-12.16 332.74-15.12Q333.89-18.07 334.61-19.84L334.61-19.84Q332.74-17.78 331.11-16.48L331.11-16.48Q330.63-16.10 330.44-16.39L330.44-16.39Q330.39-16.44 330.39-16.58Q330.39-16.72 330.82-17.11L330.82-17.11Q333.75-19.65 335.43-21.81L335.43-21.81Q336.68-24.74 340.01-29.95Q343.35-35.16 346.85-38.56L346.85-38.56Q349.20-40.92 351.94-41.73L351.94-41.73Q353.19-42.12 354.27-42.12Q355.35-42.12 356.28-41.52Q357.22-40.92 357.22-39.28L357.22-39.28Q357.22-37.12 355.78-34.92Q354.34-32.71 350.69-30.00Q347.04-27.28 343.92-25.94L343.92-25.94Q343.35-25.70 343.25-26.01Q343.16-26.32 343.73-26.56L343.73-26.56Q346.52-27.81 350.00-30.50Q353.48-33.19 354.65-35.08Q355.83-36.98 355.83-38.16Q355.83-39.33 354.82-39.33L354.82-39.33Q353.67-39.33 351.17-37.41L351.17-37.41Q347.48-34.44 343.42-29.11Q339.36-23.78 336.44-18.36L336.44-18.36Q337.78-20.28 338.88-21.52L338.88-21.52Q341.57-24.55 344.12-24.55L344.12-24.55Q346.52-24.55 346.95-22.44L346.95-22.44Q347.00-22.15 347.00-21.62Q347.00-21.09 346.64-20.06Q346.28-19.03 344.62-16.27Q342.96-13.51 342.96-12.93Q342.96-12.36 343.35-12.36L343.35-12.36Q343.88-12.36 344.93-13.03L344.93-13.03Q347.62-14.71 351.94-18.69L351.94-18.69Q352.52-19.27 352.49-18.88Q352.47-18.50 352.18-18.16L352.18-18.16Q348.63-14.52 344.84-12.07L344.84-12.07Q343.06-10.92 341.62-10.92L341.62-10.92Q341.24-10.92 340.90-11.01L340.90-11.01Q339.03-11.40 339.03-13.10Q339.03-14.80 340.37-16.92L340.37-16.92Q340.61-17.25 342.15-19.17L342.15-19.17Q344.50-22.05 344.50-23.01ZM368.16-18.69Q367.64-18.07 367.08-17.35Q366.53-16.63 365.69-15.38Q364.85-14.13 364.85-13.27Q364.85-12.40 365.60-12.40Q366.34-12.40 368.02-13.32L368.02-13.32Q371.38-15.24 375.46-19.08L375.46-19.08Q375.94-19.56 376.08-19.22L376.08-19.22Q376.08-19.17 376.08-19.03Q376.08-18.88 375.89-18.69L375.89-18.69Q367.64-10.92 363.89-10.92L363.89-10.92Q362.79-10.92 362.04-11.66Q361.30-12.40 361.30-13.41L361.30-13.41Q361.30-14.42 362.16-16.48L362.16-16.48Q360.00-13.80 357.53-12.33Q355.06-10.87 353.67-10.87Q352.28-10.87 351.29-11.71Q350.31-12.55 350.31-13.80L350.31-13.80Q350.31-17.35 353.48-20.76L353.48-20.76Q355.88-23.30 359.43-24.36L359.43-24.36Q361.01-24.88 362.52-24.88Q364.04-24.88 365.45-24.04Q366.87-23.20 367.25-22.05L367.25-22.05Q368.69-22.05 369.32-21.00L369.32-21.00Q369.41-20.85 369.41-20.52Q369.41-20.18 369.05-19.75Q368.69-19.32 368.16-18.69ZM364.66-23.44L364.66-23.44Q363.65-23.44 362.26-22.82L362.26-22.82Q359.81-21.76 357.60-19.17L357.60-19.17Q354.10-15.04 354.10-13.12L354.10-13.12Q354.10-12.12 354.92-12.12L354.92-12.12Q355.59-12.12 357.15-12.98Q358.71-13.84 361.25-16.39L361.25-16.39Q361.40-16.53 362.36-17.44Q363.32-18.36 363.99-19.03L363.99-19.03Q366.24-21.38 366.24-22.41Q366.24-23.44 364.66-23.44ZM391.97-25.56L391.97-25.56Q392.02-25.46 392.02-25.36Q392.02-25.27 391.85-25.32Q391.68-25.36 391.64-25.46L391.64-25.46Q391.30-26.18 390.72-26.18L390.72-26.18Q389.00-26.18 384.53-19.08L384.53-19.08Q381.75-14.56 379.88-12.69L379.88-12.69Q378.92-11.73 377.62-11.35Q376.32-10.96 375.75-10.96Q375.17-10.96 374.84-11.11L374.84-11.11Q375.60-12.21 376.47-14.68Q377.33-17.16 377.79-19.05Q378.24-20.95 378.20-20.95L378.20-20.95L376.18-18.93Q374.64-17.35 373.11-16.15L373.11-16.15Q372.53-15.67 372.53-16.20L372.53-16.20Q372.53-16.48 372.80-16.72Q373.06-16.96 373.73-17.56Q374.40-18.16 374.62-18.36Q374.84-18.55 375.44-19.10Q376.04-19.65 376.32-19.99L376.32-19.99Q377.67-21.57 378.29-22.68L378.29-22.68Q378.53-23.25 378.51-23.80Q378.48-24.36 378.27-24.52Q378.05-24.69 378.10-24.93L378.10-24.93Q378.15-25.51 378.92-25.22L378.92-25.22Q380.60-24.45 380.74-23.01L380.74-23.01Q380.88-22.29 380.88-21.02Q380.88-19.75 380.40-17.06L380.40-17.06Q379.92-14.28 378.58-12.26L378.58-12.26Q380.74-13.65 383.55-19.20Q386.36-24.74 387.94-26.28L387.94-26.28Q388.61-26.95 389.62-26.95L389.62-26.95Q391.40-26.95 391.97-25.56ZM405.99-18.69Q405.46-18.07 404.91-17.35Q404.36-16.63 403.52-15.38Q402.68-14.13 402.68-13.27Q402.68-12.40 403.42-12.40Q404.16-12.40 405.84-13.32L405.84-13.32Q409.20-15.24 413.28-19.08L413.28-19.08Q413.76-19.56 413.91-19.22L413.91-19.22Q413.91-19.17 413.91-19.03Q413.91-18.88 413.72-18.69L413.72-18.69Q405.46-10.92 401.72-10.92L401.72-10.92Q400.61-10.92 399.87-11.66Q399.12-12.40 399.12-13.41L399.12-13.41Q399.12-14.42 399.99-16.48L399.99-16.48Q397.83-13.80 395.36-12.33Q392.88-10.87 391.49-10.87Q390.10-10.87 389.12-11.71Q388.13-12.55 388.13-13.80L388.13-13.80Q388.13-17.35 391.30-20.76L391.30-20.76Q393.70-23.30 397.25-24.36L397.25-24.36Q398.84-24.88 400.35-24.88Q401.86-24.88 403.28-24.04Q404.69-23.20 405.08-22.05L405.08-22.05Q406.52-22.05 407.14-21.00L407.14-21.00Q407.24-20.85 407.24-20.52Q407.24-20.18 406.88-19.75Q406.52-19.32 405.99-18.69ZM402.48-23.44L402.48-23.44Q401.48-23.44 400.08-22.82L400.08-22.82Q397.64-21.76 395.43-19.17L395.43-19.17Q391.92-15.04 391.92-13.12L391.92-13.12Q391.92-12.12 392.74-12.12L392.74-12.12Q393.41-12.12 394.97-12.98Q396.53-13.84 399.08-16.39L399.08-16.39Q399.22-16.53 400.18-17.44Q401.14-18.36 401.81-19.03L401.81-19.03Q404.07-21.38 404.07-22.41Q404.07-23.44 402.48-23.44ZM415.11-13.27L415.11-13.27Q415.11-11.97 416.40-11.97L416.40-11.97Q417.17-11.97 418.83-12.60Q420.48-13.22 423.12-15.33Q425.76-17.44 426.68-18.38Q427.59-19.32 427.78-19.29Q427.97-19.27 427.92-19.00Q427.88-18.74 427.68-18.55L427.68-18.55Q423.60-14.37 420.92-12.55Q418.23-10.72 415.92-10.72L415.92-10.72Q413.96-10.72 413.19-11.64Q412.42-12.55 412.42-13.75L412.42-13.75Q412.42-15.91 413.96-18.93L413.96-18.93Q411.17-15.96 411.17-17.01L411.17-17.01Q411.17-17.20 411.46-17.44L411.46-17.44Q413.72-19.27 416.31-22.72L416.31-22.72Q421.06-28.92 423.75-33.62L423.75-33.62Q424.23-34.53 424.23-34.96L424.23-34.96Q424.23-35.97 423.12-35.35L423.12-35.35Q421.88-34.72 421.78-34.87Q421.68-35.01 421.92-35.25L421.92-35.25Q423.08-36.12 425.09-36.88Q427.11-37.65 428.40-37.70L428.40-37.70Q430.42-37.70 430.42-36.45L430.42-36.45Q430.42-35.73 429.72-34.53Q429.03-33.33 425.74-29.76Q422.45-26.18 421.73-25.27L421.73-25.27Q416.79-18.79 415.44-14.95L415.44-14.95Q415.11-13.94 415.11-13.27ZM436.37-18.69Q435.89-17.97 435.08-16.87Q434.26-15.76 433.54-14.76Q432.82-13.75 432.82-13.24Q432.82-12.74 433.30-12.74L433.30-12.74Q434.16-12.74 435.84-14.28L435.84-14.28L437.38-15.76Q439.73-18.31 441.51-20.66L441.51-20.66L443.28-22.82Q444.10-23.73 445.01-23.78L445.01-23.78Q446.40-23.78 447.60-22.72L447.60-22.72Q447.32-22.29 446.67-21.48Q446.02-20.66 445.37-19.82Q444.72-18.98 443.88-17.88Q443.04-16.77 442.42-15.81Q441.80-14.85 441.15-13.77Q440.50-12.69 440.21-11.92L440.21-11.92Q439.49-9.81 440.26-9.28L440.26-9.28Q440.50-9.04 440.16-9.04L440.16-9.04Q440.07-9.04 439.97-9.09L439.97-9.09Q438.15-9.72 438.15-12.07Q438.15-14.42 439.68-17.64L439.68-17.64Q434.55-11.01 431.33-11.01L431.33-11.01Q428.88-11.01 428.88-13.32L428.88-13.32Q428.88-14.13 429.22-15.24L429.22-15.24Q429.94-17.40 434.12-22.05L434.12-22.05Q434.64-22.68 434.64-23.11Q434.64-23.54 434.07-23.54Q433.49-23.54 432.34-22.68Q431.19-21.81 429.12-19.87Q427.06-17.92 426.60-17.54Q426.15-17.16 426.15-17.73L426.15-17.73Q426.15-18.02 427.06-18.76Q427.97-19.51 429.56-21.16Q431.14-22.82 432.32-23.71Q433.49-24.60 435.03-24.60L435.03-24.60Q436.76-24.60 437.38-23.30L437.38-23.30Q437.62-22.82 437.62-22.05Q437.62-21.28 437.24-20.35Q436.85-19.41 436.37-18.69Z"></path></g></g></svg>